<svg width="160" height="30" viewBox="0 0 160 30" fill="none" xmlns="http://www.w3.org/2000/svg">
<path d="M0.948535 25.0574C1.1329 23.8617 1.22366 22.6534 1.21999 21.4435V7.63749C1.21999 6.03133 1.09946 4.64028 0.858396 3.46434C0.617335 2.2884 0.331203 1.32757 0 0.581848H9.16987C11.4289 0.581848 13.4844 1.06943 15.3364 2.0446C17.1884 3.01977 18.6716 4.51838 19.7861 6.54043C20.8999 8.56247 21.4568 11.0793 21.4568 14.0908C21.4568 17.1597 20.8924 19.7769 19.7636 21.9424C18.6348 24.1078 17.1064 25.7498 15.1786 26.8684C13.2508 27.987 11.0823 28.5463 8.67307 28.5463H0C0.438353 27.42 0.7563 26.2506 0.948535 25.0574ZM8.35655 26.9073C10.1935 26.9073 11.6768 26.3839 12.8063 25.337C13.9358 24.2902 14.7416 22.8848 15.2237 21.1209C15.7017 19.3569 15.9425 17.3424 15.9459 15.0773C15.9459 11.2339 15.2534 8.12917 13.8685 5.76295C12.4836 3.39673 10.4349 2.21362 7.72248 2.21362C7.24002 2.21362 6.76575 2.22898 6.29968 2.25664C5.83725 2.28476 5.37708 2.34224 4.92194 2.42873L6.63874 1.009L6.5025 3.46126C6.4424 5.35424 6.41235 6.74529 6.41235 7.63442V21.4476C6.41235 23.9743 6.54893 26.1828 6.82209 28.073L5.1053 26.5673C6.17457 26.792 7.26393 26.9073 8.35655 26.9114V26.9073Z" fill="#D33163"/>
<path d="M24.4094 25.0594C24.5922 23.8649 24.6816 22.658 24.6768 21.4496V7.63949C24.6768 6.17673 24.5863 4.92909 24.4053 3.89655C24.1966 2.76434 23.8789 1.65495 23.4568 0.583844H30.1877C30.0299 1.7248 29.9393 2.87404 29.9163 4.02562C29.8862 5.25892 29.8712 6.46355 29.8712 7.63949V21.4496C29.8712 24.0883 30.0218 26.4545 30.3229 28.5483H23.4599C23.8986 27.4221 24.2169 26.2526 24.4094 25.0594ZM35.0482 15.6805C33.8579 15.193 32.3747 14.9492 30.5985 14.9492H27.21V13.2795H30.5985C32.4355 13.2795 33.9412 13.05 35.1158 12.5911C36.2904 12.1322 37.465 11.2861 38.6395 10.0528V18.227C37.4342 17.0197 36.2371 16.1722 35.0482 15.6846V15.6805ZM38.5053 4.88606C37.662 4.08435 36.6079 3.45336 35.3432 2.99309C34.0785 2.53282 32.4969 2.274 30.5985 2.21664H29.0169V0.577698H41.0785L40.8982 7.97752C40.1443 6.71963 39.3467 5.68915 38.5053 4.88606ZM29.0189 26.9093H30.4643C32.4529 26.8807 34.0717 26.644 35.3207 26.1995C36.5697 25.7549 37.6005 25.1325 38.4131 24.3321C39.2258 23.529 40.0692 22.4398 40.9433 21.0645L41.0334 28.5503H29.0169L29.0189 26.9093Z" fill="#D33163"/>
<path d="M44.7954 3.24918C44.3388 2.27077 43.7621 1.35306 43.0786 0.517273H52.0682C51.8886 0.898669 51.7668 1.30465 51.7066 1.7219C51.6122 2.29058 51.567 2.86634 51.5714 3.44278C51.5585 4.63393 51.7105 5.82114 52.0231 6.9706L57.1735 24.1365H55.9535L61.193 6.9706C61.3523 6.4436 61.4657 5.90381 61.5321 5.35727C61.6063 4.77977 61.644 4.19815 61.6447 3.6159C61.6489 3.01091 61.6037 2.40659 61.5095 1.80897C61.4194 1.26265 61.2688 0.832429 61.0578 0.518298H66.705C65.9532 1.36383 65.3151 2.30393 64.8069 3.31474C64.1872 4.56553 63.659 5.85959 63.2263 7.18674L56.0887 28.6108H53.5135L46.3319 7.18572C45.8938 5.84582 45.3808 4.53158 44.7954 3.24918Z" fill="#D33163"/>
<path d="M70.606 25.8102C71.2222 24.5647 71.736 23.2711 72.1425 21.9423L79.2801 0.517273H81.9004L89.0779 21.9423C89.5154 23.2825 90.0284 24.5967 90.6144 25.8789C91.0707 26.8574 91.6474 27.7752 92.3312 28.6108H83.3416C83.5209 28.2293 83.6427 27.8233 83.7032 27.4062C83.7976 26.8375 83.8428 26.2617 83.8384 25.6853C83.8358 24.4921 83.6686 23.3049 83.3416 22.1574L78.2373 4.98749H79.4563L74.2168 22.1533C74.0596 22.6968 73.9388 23.2502 73.8552 23.8097C73.7668 24.3719 73.7213 24.94 73.719 25.5091C73.7137 26.1151 73.7669 26.7202 73.8777 27.316C73.9822 27.8623 74.1403 28.2925 74.352 28.6067H68.7048C69.4579 27.7615 70.0971 26.8214 70.606 25.8102ZM85.419 18.1523V19.572H73.9464V18.1523H85.419Z" fill="#D33163"/>
<path d="M95.3259 25.0574C95.5099 23.8616 95.6004 22.6533 95.5964 21.4435V7.63749C95.5982 6.4563 95.5077 5.27678 95.3259 4.10967C95.1422 2.89699 94.8081 1.71192 94.3313 0.581848H101.695C101.345 1.70468 101.095 2.85649 100.95 4.02363C100.809 5.22306 100.741 6.42986 100.745 7.63749V21.4476C100.745 22.7963 100.79 24.0296 100.88 25.1475C100.973 26.2898 101.139 27.4251 101.377 28.5463H94.3764C94.8146 27.4199 95.1328 26.2505 95.3259 25.0574ZM99.8883 26.7783H101.74C103.275 26.7783 104.623 26.5703 105.783 26.1545C106.919 25.7532 107.952 25.1069 108.809 24.2615C109.668 23.4167 110.428 22.3484 111.09 21.0563L111 28.5422H99.8883V26.7783Z" fill="#D33163"/>
<path d="M118.58 27.232C116.847 25.97 115.499 24.2287 114.537 22.0079C113.575 19.7871 113.092 17.2703 113.09 14.4575C113.09 11.6467 113.58 9.14427 114.559 6.95014C115.538 4.756 116.916 3.04877 118.692 1.82844C120.468 0.609482 122.517 0 124.838 0C127.037 0 128.994 0.616651 130.711 1.84995C132.428 3.08326 133.768 4.81132 134.732 7.03413C135.695 9.25695 136.177 11.8024 136.177 14.6706C136.177 17.482 135.695 19.9845 134.732 22.1779C133.768 24.3714 132.398 26.0786 130.621 27.2996C128.845 28.5186 126.797 29.1281 124.475 29.1281C122.275 29.126 120.31 28.494 118.58 27.232ZM128.404 25.8103C129.127 25.0359 129.662 23.9244 130.008 22.476C130.355 21.0276 130.528 19.2862 130.528 17.2519C130.528 14.269 130.249 11.6447 129.692 9.37884C129.135 7.113 128.329 5.34909 127.275 4.08711C126.22 2.82512 125.001 2.19413 123.616 2.19413C122.502 2.19413 121.583 2.55265 120.861 3.26969C120.138 3.98673 119.604 5.05511 119.257 6.47484C118.908 7.89253 118.733 9.66327 118.733 11.7871C118.733 14.6552 119.005 17.2365 119.547 19.5311C120.089 21.8256 120.879 23.6397 121.918 24.9734C122.957 26.3071 124.199 26.9739 125.645 26.9739C126.761 26.9739 127.681 26.586 128.404 25.8103Z" fill="#D33163"/>
<path d="M139.171 25.0564C139.355 23.8606 139.445 22.6523 139.441 21.4425V7.63646C139.444 6.38206 139.338 5.12975 139.126 3.89353C138.916 2.76143 138.599 1.65209 138.177 0.580819H145.86C145.423 1.67478 145.114 2.81515 144.938 3.97957C144.765 5.1908 144.682 6.41305 144.689 7.63646V21.7908C144.689 23.1101 144.749 24.1003 144.869 24.7613C145.044 26.0607 145.378 27.3337 145.864 28.5514H138.229C138.665 27.4227 138.981 26.2512 139.171 25.0564ZM143.643 18.0437L150.78 7.63236C151.684 6.31302 152.316 5.11556 152.678 4.04001C153.045 2.92359 153.213 1.75134 153.174 0.576721H159.454C158.427 1.41089 157.468 2.32433 156.585 3.30863C155.667 4.32682 154.636 5.58164 153.492 7.07308C153.068 7.61939 152.647 8.1657 152.227 8.71202L144.321 19.1234L143.643 18.0437ZM148.457 15.2903C148.391 15.1748 148.303 15.0735 148.197 14.9923C148.092 14.911 147.971 14.8515 147.843 14.8171C147.471 14.7487 147.093 14.7198 146.716 14.731L147.393 13.5694H150.917C151.85 13.5694 152.611 13.6555 153.198 13.8276C153.474 13.9005 153.728 14.0409 153.937 14.2361C154.146 14.4313 154.304 14.6753 154.395 14.9461L157.421 23.7657C158.054 25.716 158.868 27.3079 159.861 28.5412H153.04L149.019 16.5851C148.81 15.9828 148.621 15.5525 148.453 15.2944L148.457 15.2903Z" fill="#D33163"/>
</svg>
